# xmcd
#
# Track frame offsets:
#	150
#	15072
#	25976
#	40443
#	56136
#	70521
#	85977
#	105042
#	122333
#	139234
#	152412
#	167676
#	186309
#	202195
#	218250
#	247645
#
# Disc length: 3316 seconds
#
# Revision: 1
# Processed by: cddbd v1.5.2PL0 Copyright (c) Steve Scherf et al.
# Submitted via: audiograbber 1.83.01
#
DISCID=c00cf210
DTITLE=Tracy Byrd - CB8590
DYEAR=1900
DGENRE=Country
TTITLE0=Tracy Byrd - Ten Rounds With Jose Cuervo
TTITLE1=Tracy Byrd - Drinkin' Bone
TTITLE2=Tracy Byrd - The Truth About Men
TTITLE3=Tracy Byrd - 4 To 1 In Atlanta
TTITLE4=Tracy Byrd - Good Ol' Fashioned Love
TTITLE5=Tracy Byrd - How'd I Wind Up In Jamaica
TTITLE6=Tracy Byrd - Just Let Me Be In Love
TTITLE7=Tracy Byrd - Lately (Been Dreamin' 'Bout Babies)
TTITLE8=Tracy Byrd - Love, You Ain't Seen The Last Of Me
TTITLE9=Tracy Byrd - No Ordinary Man
TTITLE10=Tracy Byrd - Pink Flamingos
TTITLE11=Tracy Byrd - Revenge Of A Middle-Aged Woman
TTITLE12=Tracy Byrd - Someone To Give My Love To
TTITLE13=Tracy Byrd - Take Me With You When You Go
TTITLE14=Tracy Byrd - A Good Way To Get On My Bad Side
TTITLE15=Tracy Byrd - Blank
EXTD=
EXTT0=
EXTT1=
EXTT2=
EXTT3=
EXTT4=
EXTT5=
EXTT6=
EXTT7=
EXTT8=
EXTT9=
EXTT10=
EXTT11=
EXTT12=
EXTT13=
EXTT14=
EXTT15=
PLAYORDER=
